<?xml version="1.0" encoding="UTF-8"?>
<svg id="Layer_2" data-name="Layer 2" xmlns="http://www.w3.org/2000/svg" viewBox="0 0 356.79 120.84">
  <defs>
    <style>
      .cls-1 {
        fill: #231f20;
        stroke-width: 0px;
      }
    </style>
  </defs>
  <g id="Layer_1-2" data-name="Layer 1">
    <g>
      <g>
        <path class="cls-1" d="M99.67,63.82c-3.73-1.14-6.71-2.72-8.94-4.73-1.03-.87-1.55-1.99-1.55-3.35,0-.98.27-1.81.82-2.49.54-.68,1.2-1.02,1.96-1.02s1.69.35,2.77,1.06c4.84,3.59,10.36,5.39,16.57,5.39,4.35,0,7.7-.82,10.04-2.45,2.34-1.63,3.51-3.97,3.51-7.02,0-2.39-1.09-4.19-3.26-5.39-2.18-1.2-5.66-2.34-10.45-3.43-4.57-.98-8.32-2.09-11.26-3.35-2.94-1.25-5.24-2.95-6.9-5.1-1.66-2.15-2.49-4.88-2.49-8.2s.91-6.27,2.73-8.85c1.82-2.58,4.37-4.6,7.63-6.04,3.26-1.44,6.99-2.16,11.18-2.16,3.86,0,7.43.54,10.69,1.63,3.26,1.09,6.04,2.69,8.32,4.82,1.09.93,1.63,2.04,1.63,3.35,0,.93-.29,1.74-.86,2.45-.57.71-1.24,1.06-2,1.06-.71,0-1.61-.35-2.69-1.06-2.5-1.9-4.86-3.28-7.06-4.12-2.2-.84-4.86-1.27-7.96-1.27-4.19,0-7.45.86-9.79,2.57-2.34,1.71-3.51,4.09-3.51,7.14,0,2.61,1.03,4.58,3.1,5.92,2.07,1.33,5.39,2.54,9.96,3.63,4.79,1.09,8.66,2.22,11.63,3.39,2.96,1.17,5.33,2.77,7.1,4.82,1.77,2.04,2.65,4.67,2.65,7.88s-.91,6.16-2.73,8.69c-1.82,2.53-4.38,4.49-7.67,5.88-3.29,1.39-7.09,2.08-11.38,2.08s-8.07-.57-11.79-1.71Z"/>
        <path class="cls-1" d="M171.16,28.08c2.58,2.67,3.88,6.72,3.88,12.16v21.14c0,1.25-.35,2.22-1.06,2.9-.71.68-1.69,1.02-2.94,1.02s-2.15-.35-2.86-1.06c-.71-.71-1.06-1.66-1.06-2.86v-3.02c-1.03,2.29-2.57,4.04-4.61,5.26-2.04,1.22-4.42,1.84-7.14,1.84s-5.01-.53-7.18-1.59c-2.18-1.06-3.88-2.54-5.1-4.45-1.22-1.9-1.84-4.03-1.84-6.37,0-2.88.75-5.15,2.24-6.81,1.5-1.66,3.97-2.84,7.43-3.55,3.45-.71,8.2-1.06,14.24-1.06h1.88v-2.37c0-3.05-.63-5.25-1.88-6.61-1.25-1.36-3.26-2.04-6.04-2.04-1.91,0-3.7.25-5.39.73-1.69.49-3.54,1.2-5.55,2.12-1.47.82-2.5,1.22-3.1,1.22-.82,0-1.48-.3-2-.9-.52-.6-.78-1.36-.78-2.29,0-.82.23-1.54.69-2.16.46-.62,1.21-1.24,2.24-1.84,1.9-1.03,4.13-1.86,6.69-2.49,2.56-.62,5.03-.94,7.43-.94,5.28,0,9.21,1.33,11.79,4ZM164.19,56.28c1.9-2.04,2.86-4.66,2.86-7.88v-2.12h-1.47c-4.24,0-7.51.19-9.79.57-2.29.38-3.92,1.02-4.9,1.92-.98.9-1.47,2.19-1.47,3.88,0,1.96.71,3.56,2.12,4.81,1.41,1.25,3.18,1.88,5.3,1.88,2.99,0,5.44-1.02,7.35-3.06Z"/>
        <path class="cls-1" d="M208.38,59.95c.52.52.78,1.24.78,2.16,0,1.09-.42,1.92-1.27,2.49s-2.08.8-3.71.69l-2.2-.16c-4.41-.33-7.7-1.67-9.88-4.04-2.18-2.37-3.26-5.86-3.26-10.49v-19.18h-4.9c-2.4,0-3.59-1.06-3.59-3.18,0-.98.31-1.75.94-2.33.62-.57,1.51-.86,2.65-.86h4.9v-8.41c0-1.25.37-2.23,1.1-2.94.73-.71,1.73-1.06,2.98-1.06s2.26.35,3.02,1.06c.76.71,1.14,1.69,1.14,2.94v8.41h8.08c1.14,0,2.03.29,2.65.86.62.57.94,1.35.94,2.33,0,1.03-.31,1.82-.94,2.37-.63.54-1.51.82-2.65.82h-8.08v19.75c0,2.56.53,4.44,1.59,5.63,1.06,1.2,2.68,1.88,4.86,2.04l2.29.16c1.2.11,2.05.42,2.57.94Z"/>
        <path class="cls-1" d="M222.09,62.93c-2.97-1.69-5.25-4.09-6.86-7.22-1.61-3.13-2.41-6.76-2.41-10.9s.8-7.85,2.41-10.98c1.6-3.13,3.89-5.54,6.86-7.22,2.96-1.69,6.41-2.53,10.32-2.53s7.36.84,10.32,2.53c2.96,1.69,5.25,4.09,6.86,7.22,1.6,3.13,2.41,6.79,2.41,10.98s-.8,7.77-2.41,10.9c-1.61,3.13-3.89,5.54-6.86,7.22-2.97,1.69-6.41,2.53-10.32,2.53s-7.36-.84-10.32-2.53ZM240.78,55.34c1.93-2.39,2.9-5.9,2.9-10.53s-.98-8.07-2.94-10.49c-1.96-2.42-4.73-3.63-8.32-3.63s-6.37,1.21-8.32,3.63c-1.96,2.42-2.94,5.92-2.94,10.49s.97,8.13,2.9,10.53c1.93,2.39,4.72,3.59,8.37,3.59s6.43-1.2,8.37-3.59Z"/>
        <path class="cls-1" d="M261.38,62.03c-.98-.6-1.67-1.22-2.08-1.88-.41-.65-.61-1.39-.61-2.2,0-.87.25-1.6.73-2.2.49-.6,1.11-.9,1.88-.9.71,0,1.82.44,3.35,1.31,1.63.87,3.22,1.58,4.77,2.12,1.55.54,3.5.82,5.83.82,2.61,0,4.65-.46,6.12-1.39,1.47-.92,2.2-2.23,2.2-3.92,0-1.09-.29-1.96-.86-2.61-.57-.65-1.56-1.24-2.98-1.75-1.42-.52-3.51-1.07-6.28-1.67-4.79-1.03-8.23-2.43-10.32-4.2-2.09-1.77-3.14-4.17-3.14-7.22,0-2.34.68-4.45,2.04-6.32,1.36-1.88,3.24-3.33,5.63-4.37,2.39-1.03,5.11-1.55,8.16-1.55,2.18,0,4.3.29,6.37.86,2.07.57,3.89,1.4,5.47,2.49,1.8,1.2,2.69,2.58,2.69,4.16,0,.87-.26,1.61-.78,2.2-.52.6-1.13.9-1.84.9-.49,0-.98-.11-1.47-.33-.49-.22-1.14-.57-1.96-1.06-1.47-.87-2.84-1.55-4.12-2.04-1.28-.49-2.87-.73-4.77-.73-2.29,0-4.12.49-5.51,1.47-1.39.98-2.08,2.31-2.08,4,0,1.52.64,2.71,1.92,3.55,1.28.84,3.69,1.65,7.22,2.41,3.64.76,6.5,1.63,8.57,2.61,2.07.98,3.55,2.19,4.45,3.63.9,1.44,1.35,3.28,1.35,5.51,0,3.54-1.48,6.38-4.45,8.53-2.97,2.15-6.92,3.22-11.87,3.22-5.55,0-10.09-1.14-13.63-3.43Z"/>
        <path class="cls-1" d="M336.22,40.16v21.22c0,1.2-.38,2.15-1.14,2.86s-1.77,1.06-3.02,1.06-2.24-.35-2.98-1.06-1.1-1.66-1.1-2.86v-21.14c0-3.26-.67-5.66-2-7.18-1.33-1.52-3.41-2.29-6.24-2.29-3.32,0-5.99,1.03-8,3.1-2.01,2.07-3.02,4.84-3.02,8.32v19.18c0,1.2-.37,2.15-1.1,2.86s-1.73,1.06-2.98,1.06-2.26-.35-3.02-1.06c-.76-.71-1.14-1.66-1.14-2.86V10.86c0-1.2.39-2.15,1.18-2.86.79-.71,1.81-1.06,3.06-1.06s2.16.34,2.9,1.02c.73.68,1.1,1.59,1.1,2.73v20.4c1.36-2.29,3.18-4.03,5.47-5.22,2.29-1.2,4.9-1.8,7.83-1.8,9.47,0,14.2,5.36,14.2,16.08Z"/>
        <path class="cls-1" d="M347.89,14.94c-.93-.87-1.39-2.01-1.39-3.43s.46-2.54,1.39-3.39c.92-.84,2.17-1.26,3.75-1.26s2.76.42,3.71,1.26c.95.84,1.43,1.97,1.43,3.39s-.46,2.56-1.39,3.43c-.93.87-2.18,1.31-3.75,1.31s-2.83-.44-3.75-1.31ZM348.67,64.31c-.79-.65-1.18-1.63-1.18-2.94V28.24c0-1.31.39-2.3,1.18-2.98.79-.68,1.78-1.02,2.98-1.02s2.18.34,2.94,1.02c.76.68,1.14,1.67,1.14,2.98v33.13c0,1.31-.38,2.29-1.14,2.94s-1.74.98-2.94.98-2.19-.33-2.98-.98Z"/>
      </g>
      <path class="cls-1" d="M27.71,26.7c1.32-1.16,3.02-1.79,4.75-1.79.38,0,.77.03,1.16.09.66.11,1.34.16,2.03.16,6.94,0,12.58-5.65,12.58-12.58S42.58,0,35.64,0s-12.58,5.65-12.58,12.58c0,.2,0,.4.01.6.1,2.15-.77,4.23-2.37,5.68-1.33,1.2-3.06,1.86-4.83,1.86-.35,0-.7-.03-1.05-.08-.59-.09-1.2-.13-1.8-.13-6.75,0-12.25,5.49-12.25,12.25s5.49,12.25,12.25,12.25c.75,0,1.49-.07,2.22-.2.43-.08.87-.12,1.3-.12,1.72,0,3.4.61,4.72,1.76,1.65,1.43,2.57,3.54,2.48,5.72,0,.16,0,.32,0,.48,0,.13.02.26.02.39,0,.13-.02.26-.02.39v.28c.05,2.22-.92,4.33-2.64,5.73-1.3,1.06-2.91,1.63-4.56,1.63-.53,0-1.06-.06-1.58-.18-.88-.2-1.79-.3-2.7-.3-6.75,0-12.25,5.49-12.25,12.25s5.49,12.25,12.25,12.25,12.25-5.49,12.25-12.25v-.28c-.05-2.22.92-4.33,2.64-5.73,1.3-1.06,2.91-1.63,4.56-1.63.53,0,1.06.06,1.58.18.88.2,1.79.3,2.7.3,6.75,0,12.25-5.49,12.25-12.25,0-.13-.02-.26-.02-.39,0-.13.02-.26.02-.39,0-6.75-5.49-12.25-12.25-12.25-.75,0-1.49.07-2.22.2-.43.08-.87.12-1.3.12-1.72,0-3.4-.61-4.72-1.76-1.65-1.43-2.57-3.54-2.48-5.72,0-.16,0-.32,0-.48,0-.14,0-.28,0-.41-.07-2.15.83-4.22,2.45-5.64Z"/>
      <circle class="cls-1" cx="65.35" cy="30.41" r="11.77" transform="translate(-2.36 55.11) rotate(-45)"/>
      <g>
        <path class="cls-1" d="M129.9,102.26h1.67v8.94c-2.15,2.05-5.25,3.07-8.53,3.07-7.2,0-12.48-5.15-12.48-12.11s5.29-12.11,12.52-12.11c3.44,0,6.48,1.09,8.59,3.27l-1.09,1.16c-2.08-2.05-4.57-2.83-7.47-2.83-6.21,0-10.81,4.5-10.81,10.5s4.6,10.5,10.81,10.5c2.52,0,4.84-.61,6.79-2.18v-8.22Z"/>
        <path class="cls-1" d="M138.67,88.79h1.71v25.3h-1.71v-25.3Z"/>
        <path class="cls-1" d="M145.63,105.19c0-5.29,3.79-9.04,8.9-9.04s8.9,3.75,8.9,9.04-3.79,9.04-8.9,9.04-8.9-3.75-8.9-9.04ZM161.69,105.19c0-4.47-3.07-7.5-7.16-7.5s-7.16,3.04-7.16,7.5,3.07,7.5,7.16,7.5,7.16-3.04,7.16-7.5Z"/>
        <path class="cls-1" d="M186.45,105.19c0,5.32-3.79,9.04-8.8,9.04-3.21,0-5.9-1.6-7.3-4.33v4.19h-1.64v-25.3h1.71v11.56c1.43-2.66,4.09-4.19,7.23-4.19,5.01,0,8.8,3.68,8.8,9.04ZM184.75,105.19c0-4.47-3.1-7.5-7.2-7.5s-7.16,3.04-7.16,7.5,3.07,7.5,7.16,7.5,7.2-3.04,7.2-7.5Z"/>
        <path class="cls-1" d="M204.53,102.8v11.29h-1.64v-3.17c-1.13,2.05-3.31,3.31-6.41,3.31-3.99,0-6.41-2.05-6.41-5.08,0-2.69,1.71-4.98,6.65-4.98h6.1v-1.43c0-3.31-1.81-5.08-5.29-5.08-2.46,0-4.67.92-6.14,2.25l-.85-1.23c1.77-1.57,4.37-2.52,7.13-2.52,4.4,0,6.86,2.25,6.86,6.65ZM202.83,108.84v-3.34h-6.07c-3.68,0-4.98,1.53-4.98,3.58,0,2.32,1.81,3.75,4.95,3.75s5.08-1.43,6.1-3.99Z"/>
        <path class="cls-1" d="M211.56,88.79h1.71v25.3h-1.71v-25.3Z"/>
        <path class="cls-1" d="M248.84,90.22l-10.64,23.87h-1.74l-10.64-23.87h1.91l9.65,21.62,9.65-21.62h1.81Z"/>
        <path class="cls-1" d="M251.4,90.59c0-.75.61-1.4,1.4-1.4s1.4.61,1.4,1.36-.61,1.4-1.4,1.4-1.4-.61-1.4-1.36ZM251.95,96.29h1.71v17.8h-1.71v-17.8Z"/>
        <path class="cls-1" d="M260.85,88.79h1.71v25.3h-1.71v-25.3Z"/>
        <path class="cls-1" d="M269.75,88.79h1.71v25.3h-1.71v-25.3Z"/>
        <path class="cls-1" d="M291.51,102.8v11.29h-1.64v-3.17c-1.12,2.05-3.31,3.31-6.41,3.31-3.99,0-6.41-2.05-6.41-5.08,0-2.69,1.71-4.98,6.65-4.98h6.1v-1.43c0-3.31-1.81-5.08-5.29-5.08-2.46,0-4.67.92-6.14,2.25l-.85-1.23c1.77-1.57,4.37-2.52,7.13-2.52,4.4,0,6.85,2.25,6.85,6.65ZM289.81,108.84v-3.34h-6.07c-3.68,0-4.98,1.53-4.98,3.58,0,2.32,1.81,3.75,4.95,3.75s5.08-1.43,6.1-3.99Z"/>
        <path class="cls-1" d="M314.6,96.29v15.89c0,5.97-2.9,8.66-8.63,8.66-3.24,0-6.34-1.02-8.15-2.83l.92-1.3c1.77,1.64,4.33,2.59,7.2,2.59,4.74,0,6.96-2.18,6.96-6.92v-3c-1.47,2.59-4.19,4.06-7.4,4.06-5.05,0-8.87-3.58-8.87-8.66s3.82-8.63,8.87-8.63c3.27,0,6.04,1.5,7.47,4.16v-4.02h1.64ZM312.93,104.78c0-4.19-3.07-7.09-7.3-7.09s-7.26,2.9-7.26,7.09,3.07,7.13,7.26,7.13,7.3-2.93,7.3-7.13Z"/>
        <path class="cls-1" d="M336.88,105.6h-15.31c.17,4.23,3.27,7.09,7.54,7.09,2.25,0,4.33-.82,5.7-2.49l.99,1.13c-1.57,1.91-4.02,2.9-6.72,2.9-5.39,0-9.17-3.75-9.17-9.04s3.65-9.04,8.53-9.04,8.49,3.68,8.49,8.97c0,.14-.03.31-.03.48ZM321.6,104.27h13.64c-.24-3.85-3.04-6.62-6.82-6.62s-6.55,2.73-6.82,6.62Z"/>
      </g>
    </g>
  </g>
</svg>